<svg xmlns="http://www.w3.org/2000/svg" width="47" height="36" viewBox="0 0 47 36"><g transform="translate(-2256 370)"><rect width="47" height="36" rx="18" transform="translate(2256 -370)"/><g transform="translate(2270.376 -356.139)"><path d="M164.287,6524.359h0a1.045,1.045,0,0,0,0,1.439l8.121,8.415a1.915,1.915,0,0,0,2.778,0l8.181-8.476a1.046,1.046,0,0,0,.01-1.43.96.96,0,0,0-1.4-.011l-7.485,7.758a.96.96,0,0,1-1.39,0l-7.426-7.7a.958.958,0,0,0-1.389,0" transform="translate(-164 -6524)" fill="#fdfdfe" fill-rule="evenodd"/></g></g></svg>