<svg xmlns="http://www.w3.org/2000/svg" xmlns:xlink="http://www.w3.org/1999/xlink" width="131" height="106" viewBox="0 0 131 106"><defs><clipPath id="a"><rect width="131" height="106" rx="8" transform="translate(7340 -738)" fill="#fff"/></clipPath></defs><g transform="translate(-7340 738)" clip-path="url(#a)"><g transform="translate(7282.479 -738.953)"><path d="M200.271,106.328c33.379,0,51.049-15.858,51.049-35.342,0-25.525-25.676-31.869-42.289-34.436-8.458-1.359-13.443-1.812-13.443-4.683s2.115-4.531,11.781-4.078c14.8.755,23.561,6.193,26.43,8.307L244.071,9.666C232.894,2.719,218.395,0,207.822,0c-33.075,0-50.747,13.9-50.747,34.285,0,15.858,6.343,25.977,34.285,32.321,13.14,3.021,19.031,3.172,19.031,6.343,0,3.322-3.021,4.682-15.255,3.172,0,0-18.124-2.115-30.056-10.874L154.658,91.828a80.745,80.745,0,0,0,45.612,14.5M144.993,42.969H106.328v60.943h38.664Zm-99.38,63.359c33.379,0,51.049-15.858,51.049-35.342,0-25.525-25.676-31.869-42.289-34.436-8.458-1.359-13.442-1.812-13.442-4.683s2.114-4.531,11.781-4.078c14.8.755,23.561,6.193,26.431,8.307L89.412,9.666C78.235,2.719,63.736,0,53.164,0,20.088,0,2.417,13.9,2.417,34.285c0,15.858,6.343,25.977,34.284,32.321,13.141,3.021,19.031,3.172,19.031,6.343,0,3.322-3.021,4.682-15.255,3.172,0,0-18.124-2.115-30.056-10.874L0,91.828a80.745,80.745,0,0,0,45.612,14.5" fill="#ed1c24"/><path d="M143.124,2.088a19.31,19.31,0,1,1-19.31,19.31,19.31,19.31,0,0,1,19.31-19.31" transform="translate(-17.16 -0.289)" fill="#ed1c24" fill-rule="evenodd"/></g></g></svg>