<svg xmlns="http://www.w3.org/2000/svg" xmlns:xlink="http://www.w3.org/1999/xlink" width="257.661" height="134.969" viewBox="0 0 257.661 134.969"><defs><clipPath id="a"><rect width="257.661" height="134.969" fill="#fff"/></clipPath></defs><g transform="translate(-66.647 -32.287)"><g transform="translate(66.647 32.287)"><g clip-path="url(#a)"><path d="M8.639,144.747c0,1.869-1.433,3.364-4.206,3.364a5.78,5.78,0,0,1-4.267-1.744l1-1.744a4.617,4.617,0,0,0,3.3,1.5c1.386,0,2.181-.514,2.181-1.246s-.748-1.106-2.119-1.308C1.552,143.112.54,142.006.54,140.417c0-1.744,1.417-3.27,4.019-3.27a5.613,5.613,0,0,1,3.582,1.277L7.3,140.137a4.4,4.4,0,0,0-2.773-1c-1.059,0-1.993.3-1.993,1.137,0,.716.607.98,2.118,1.23,2.29.374,3.987,1,3.987,3.239" transform="translate(-0.02 -16.88)" fill="#fff"/><rect width="1.993" height="10.467" transform="translate(90.764 120.516)" fill="#fff"/><path d="M229.244,144.747c0,1.869-1.433,3.364-4.206,3.364a5.78,5.78,0,0,1-4.267-1.744l1-1.744a4.617,4.617,0,0,0,3.3,1.5c1.386,0,2.181-.514,2.181-1.246s-.748-1.106-2.119-1.308c-2.974-.452-3.987-1.557-3.987-3.146,0-1.744,1.417-3.27,4.019-3.27a5.613,5.613,0,0,1,3.582,1.277l-.841,1.714a4.4,4.4,0,0,0-2.773-1c-1.059,0-1.993.3-1.993,1.137,0,.716.607.98,2.118,1.23,2.29.374,3.987,1,3.987,3.239" transform="translate(-27.173 -16.88)" fill="#fff"/><path d="M11.252,145.042v-4.485h1.993v4.236c0,1.2.467,1.744,1.5,1.744a1.743,1.743,0,0,0,1.744-1.993v-3.987h1.993v7.725H16.485v-.747a2.743,2.743,0,0,1-2.336,1c-1.776,0-2.9-1.153-2.9-3.489" transform="translate(-1.385 -17.3)" fill="#fff"/><path d="M33.092,143.761v4.485H31.1V144.01c0-1.2-.3-1.744-1.246-1.744-.9,0-1.5.592-1.5,1.993v3.987H26.363V144.01c0-1.2-.358-1.744-1.246-1.744s-1.5.592-1.5,1.993v3.987H21.629v-7.725h1.993v.747a2.557,2.557,0,0,1,1.994-1,2.407,2.407,0,0,1,2.164,1.044,2.907,2.907,0,0,1,2.321-1.044c1.776,0,2.99,1.153,2.99,3.489" transform="translate(-2.662 -17.265)" fill="#fff"/><path d="M36.127,137.665a1.371,1.371,0,1,1,1.371,1.371,1.363,1.363,0,0,1-1.371-1.371m.374,2.368h1.993v7.726H36.5Z" transform="translate(-4.447 -16.775)" fill="#fff"/><path d="M48.187,143.761v4.485H46.192V144.01c0-1.2-.467-1.744-1.5-1.744a1.744,1.744,0,0,0-1.745,1.993v3.987H40.959v-7.725h1.993v.747a2.743,2.743,0,0,1,2.336-1c1.776,0,2.9,1.153,2.9,3.489" transform="translate(-5.041 -17.265)" fill="#fff"/><path d="M50.625,137.665A1.371,1.371,0,1,1,52,139.035a1.363,1.363,0,0,1-1.371-1.371M51,140.032h1.993v7.726H51Z" transform="translate(-6.231 -16.775)" fill="#fff"/><path d="M61.867,145.4c0,1.573-1.246,2.741-3.4,2.741a5.937,5.937,0,0,1-3.582-1.122l.654-1.869a4.508,4.508,0,0,0,2.741,1.09c.919.016,1.589-.187,1.589-.67,0-.342-.343-.467-1.371-.638-2.882-.467-3.365-1.386-3.365-2.647s1.356-2.368,3.381-2.368a6.755,6.755,0,0,1,3.006.748l-.561,1.806a5.023,5.023,0,0,0-2.445-.654c-.81-.016-1.386.14-1.386.467,0,.467.809.545,1.635.685,2.617.421,3.1,1.449,3.1,2.43m2-3.489h-1v-1.744h1V137.43h1.993v2.741h1.5v1.744h-1.5v3.24c0,1.184.515,1.23,1.5,1V147.9a3.711,3.711,0,0,1-1.464.249c-1.417,0-2.025-1.013-2.025-2.446Zm10.469-1.993v2.352a3.037,3.037,0,0,0-1.5,0,2.386,2.386,0,0,0-1.744,2.383v3.24H69.1v-7.726h1.994v1.635a3.6,3.6,0,0,1,3.239-1.884" transform="translate(-6.756 -16.915)" fill="#fff"/><path d="M86.14,144.384a4.112,4.112,0,1,1-4.112-4.112,4.108,4.108,0,0,1,4.112,4.112m-1.993,0a2.118,2.118,0,1,0-2.119,2.119,2.121,2.121,0,0,0,2.119-2.119m9.971,1.371c0,1.573-1.246,2.741-3.4,2.741a5.937,5.937,0,0,1-3.582-1.122l.654-1.869a4.507,4.507,0,0,0,2.741,1.09c.919.016,1.589-.187,1.589-.67,0-.342-.343-.467-1.371-.638-2.882-.467-3.365-1.386-3.365-2.647s1.355-2.368,3.38-2.368a6.752,6.752,0,0,1,3.006.748l-.56,1.806a5.024,5.024,0,0,0-2.446-.654c-.809-.016-1.386.14-1.386.467,0,.467.809.545,1.635.685,2.616.421,3.1,1.449,3.1,2.43" transform="translate(-9.59 -17.265)" fill="#fff"/><path d="M115.278,143.341v4.485h-1.994v-4.236c0-1.2-.467-1.745-1.5-1.745a1.744,1.744,0,0,0-1.744,1.994v3.987H108.05V140.1h1.994v.748a2.741,2.741,0,0,1,2.336-1c1.776,0,2.9,1.152,2.9,3.489m7.479-2.414v-4.065h1.993v10.965h-1.993V147a3.031,3.031,0,0,1-2.368,1.075,4.12,4.12,0,0,1,0-8.224,3.031,3.031,0,0,1,2.368,1.075m0,3.037a2.118,2.118,0,1,0-2.119,2.119,2.121,2.121,0,0,0,2.119-2.119" transform="translate(-13.299 -16.845)" fill="#fff"/><path d="M128.945,145.042v-4.485h1.993v4.236c0,1.2.467,1.744,1.5,1.744a1.743,1.743,0,0,0,1.744-1.993v-3.987h1.993v7.725h-1.993v-.747a2.743,2.743,0,0,1-2.336,1c-1.776,0-2.9-1.153-2.9-3.489" transform="translate(-15.871 -17.3)" fill="#fff"/><path d="M145.731,145.4c0,1.573-1.246,2.741-3.4,2.741a5.937,5.937,0,0,1-3.582-1.122l.654-1.869a4.508,4.508,0,0,0,2.741,1.09c.919.016,1.589-.187,1.589-.67,0-.342-.343-.467-1.371-.638-2.882-.467-3.365-1.386-3.365-2.647s1.356-2.368,3.38-2.368a6.755,6.755,0,0,1,3.006.748l-.561,1.806a5.023,5.023,0,0,0-2.445-.654c-.81-.016-1.386.14-1.386.467,0,.467.809.545,1.635.685,2.617.421,3.1,1.449,3.1,2.43m2-3.489h-1v-1.744h1V137.43h1.993v2.741h1.5v1.744h-1.5v3.24c0,1.184.515,1.23,1.5,1V147.9a3.711,3.711,0,0,1-1.464.249c-1.417,0-2.025-1.013-2.025-2.446Zm10.469-1.993v2.352a3.037,3.037,0,0,0-1.5,0,2.386,2.386,0,0,0-1.744,2.383v3.24h-1.994v-7.726h1.994v1.635a3.6,3.6,0,0,1,3.239-1.884" transform="translate(-17.078 -16.915)" fill="#fff"/><path d="M162.065,137.665a1.371,1.371,0,1,1,1.371,1.371,1.363,1.363,0,0,1-1.371-1.371m.374,2.368h1.993v7.726h-1.993Z" transform="translate(-19.947 -16.775)" fill="#fff"/><path d="M174.552,140.521v7.726H172.56v-.826a3.034,3.034,0,0,1-2.369,1.075,4.12,4.12,0,0,1,0-8.224,3.034,3.034,0,0,1,2.369,1.075v-.826Zm-1.992,3.863a2.119,2.119,0,1,0-2.119,2.119,2.121,2.121,0,0,0,2.119-2.119" transform="translate(-20.472 -17.265)" fill="#fff"/><rect width="1.993" height="10.965" transform="translate(155.953 120.017)" fill="#fff"/><path d="M189.232,145.007h-5.623a2.244,2.244,0,0,0,2.29,1.744,4.114,4.114,0,0,0,2.305-.716l.576,1.729a5.441,5.441,0,0,1-2.913.732c-3.005,0-4.329-1.87-4.329-4.112a3.766,3.766,0,0,1,3.987-4.112c2.414,0,3.737,1.526,3.737,4.112,0,.171-.015.42-.031.623m-2.087-1.5a1.6,1.6,0,0,0-1.744-1.5,1.751,1.751,0,0,0-1.745,1.5Zm10.1,2.243c0,1.573-1.246,2.741-3.4,2.741a5.937,5.937,0,0,1-3.582-1.122l.654-1.869a4.508,4.508,0,0,0,2.741,1.09c.919.016,1.588-.187,1.588-.67,0-.343-.342-.467-1.371-.638-2.881-.467-3.364-1.386-3.364-2.647s1.355-2.368,3.38-2.368a6.761,6.761,0,0,1,3.006.747l-.56,1.807a5.017,5.017,0,0,0-2.446-.654c-.809-.016-1.386.14-1.386.467,0,.467.81.545,1.635.685,2.617.421,3.1,1.449,3.1,2.43m13.462-5.233-4.984,11.712h-2.242l1.993-4.548-2.99-7.164h2.243l1.869,4.548,1.869-4.548Z" transform="translate(-22.344 -17.265)" fill="#fff"/><path d="M239.266,145.007h-5.623a2.244,2.244,0,0,0,2.29,1.744,4.119,4.119,0,0,0,2.305-.716l.576,1.729a5.439,5.439,0,0,1-2.912.732c-3.006,0-4.33-1.87-4.33-4.112a3.766,3.766,0,0,1,3.987-4.112c2.414,0,3.738,1.526,3.738,4.112,0,.171-.016.42-.032.623m-2.087-1.5a1.6,1.6,0,0,0-1.744-1.5,1.751,1.751,0,0,0-1.745,1.5Z" transform="translate(-28.503 -17.265)" fill="#fff"/><path d="M247.039,140.273v2.352a3.037,3.037,0,0,0-1.5,0,2.386,2.386,0,0,0-1.745,2.383v3.24h-1.993v-7.726H243.8v1.635a3.6,3.6,0,0,1,3.24-1.884m.5.249h2.243l1.744,4.734,1.744-4.734h2.243l-3.24,7.726h-1.5Z" transform="translate(-29.762 -17.265)" fill="#fff"/><path d="M258.01,137.665a1.371,1.371,0,1,1,1.371,1.371,1.363,1.363,0,0,1-1.371-1.371m.374,2.368h1.993v7.726h-1.993Z" transform="translate(-31.757 -16.775)" fill="#fff"/><path d="M268.283,145.8l.825,1.776a4.113,4.113,0,1,1,0-6.386l-.825,1.791a2.557,2.557,0,0,0-1.792-.716,2.131,2.131,0,1,0,0,4.236,2.545,2.545,0,0,0,1.792-.7" transform="translate(-32.264 -17.265)" fill="#fff"/><path d="M271.229,137.665a1.371,1.371,0,1,1,1.371,1.371,1.363,1.363,0,0,1-1.371-1.371m.374,2.368H273.6v7.726H271.6Z" transform="translate(-33.384 -16.775)" fill="#fff"/><path d="M283.574,144.384a4.112,4.112,0,1,1-4.112-4.112,4.108,4.108,0,0,1,4.112,4.112m-1.993,0a2.118,2.118,0,1,0-2.119,2.119,2.121,2.121,0,0,0,2.119-2.119m9.971,1.371c0,1.573-1.246,2.741-3.4,2.741a5.937,5.937,0,0,1-3.582-1.122l.654-1.869a4.508,4.508,0,0,0,2.741,1.09c.919.016,1.589-.187,1.589-.67,0-.342-.343-.467-1.371-.638-2.881-.467-3.365-1.386-3.365-2.647s1.355-2.368,3.38-2.368a6.753,6.753,0,0,1,3.006.748l-.56,1.806a5.024,5.024,0,0,0-2.446-.654c-.809-.016-1.385.14-1.385.467,0,.467.809.545,1.635.685,2.616.421,3.1,1.449,3.1,2.43" transform="translate(-33.891 -17.265)" fill="#fff"/><path d="M203.877,108.242c33.98,0,51.969-16.144,51.969-35.978,0-25.985-26.138-32.442-43.05-35.056-8.61-1.384-13.685-1.845-13.685-4.767s2.153-4.613,11.994-4.151c15.067.769,23.985,6.3,26.906,8.457L248.466,9.84C237.088,2.768,222.327,0,211.564,0,177.893,0,159.9,14.146,159.9,34.9c0,16.144,6.458,26.445,34.9,32.9,13.377,3.075,19.374,3.229,19.374,6.458,0,3.382-3.075,4.766-15.529,3.229,0,0-18.45-2.153-30.6-11.07L157.443,93.482a82.2,82.2,0,0,0,46.434,14.76M147.6,43.742h-39.36v62.04H147.6Zm-101.17,64.5c33.98,0,51.969-16.144,51.969-35.978,0-25.985-26.138-32.442-43.05-35.056-8.61-1.384-13.684-1.845-13.684-4.767S43.82,27.829,53.66,28.29c15.067.769,23.985,6.3,26.906,8.457L91.022,9.84C79.644,2.768,64.884,0,54.122,0,20.45,0,2.461,14.146,2.461,34.9c0,16.144,6.457,26.445,34.9,32.9,13.377,3.075,19.374,3.229,19.374,6.458,0,3.382-3.075,4.766-15.529,3.229,0,0-18.45-2.153-30.6-11.07L0,93.482a82.2,82.2,0,0,0,46.434,14.76" fill="#fff"/><path d="M143.472,2.088a19.658,19.658,0,1,1-19.658,19.658A19.658,19.658,0,0,1,143.472,2.088" transform="translate(-15.239 -0.257)" fill="#fff" fill-rule="evenodd"/></g></g></g></svg>