<svg xmlns="http://www.w3.org/2000/svg" xmlns:xlink="http://www.w3.org/1999/xlink" width="740.95" height="388.127" viewBox="0 0 740.95 388.127"><defs><clipPath id="a"><rect width="740.95" height="388.127" fill="none"/></clipPath></defs><g clip-path="url(#a)"><path d="M24.531,159c0,5.374-4.121,9.673-12.094,9.673A16.622,16.622,0,0,1,.166,163.661l2.867-5.016a13.277,13.277,0,0,0,9.494,4.3c3.987,0,6.272-1.478,6.272-3.583s-2.151-3.18-6.093-3.762C4.153,154.3,1.24,151.12,1.24,146.551c0-5.016,4.075-9.4,11.557-9.4a16.14,16.14,0,0,1,10.3,3.672l-2.418,4.927a12.651,12.651,0,0,0-7.974-2.867c-3.046,0-5.732.85-5.732,3.271,0,2.06,1.745,2.819,6.09,3.538,6.584,1.074,11.466,2.865,11.466,9.315" transform="translate(0.253 208.701)" fill="#ed1c24"/><rect width="5.732" height="30.099" transform="translate(261.007 346.564)" fill="#ed1c24"/><path d="M245.136,159c0,5.374-4.121,9.673-12.094,9.673a16.622,16.622,0,0,1-12.271-5.016l2.867-5.016a13.277,13.277,0,0,0,9.494,4.3c3.987,0,6.271-1.478,6.271-3.583s-2.151-3.18-6.093-3.762c-8.554-1.3-11.466-4.479-11.466-9.048,0-5.016,4.075-9.4,11.557-9.4a16.141,16.141,0,0,1,10.3,3.672l-2.418,4.927a12.652,12.652,0,0,0-7.974-2.867c-3.046,0-5.732.85-5.732,3.271,0,2.06,1.745,2.819,6.09,3.538,6.584,1.074,11.466,2.865,11.466,9.315" transform="translate(335.954 208.701)" fill="#ed1c24"/><path d="M11.252,153.456v-12.9h5.732V152.74c0,3.447,1.344,5.016,4.3,5.016,2.6,0,5.016-1.7,5.016-5.732V140.557h5.732v22.214H26.3v-2.148c-1.523,1.79-3.359,2.867-6.718,2.867-5.106,0-8.332-3.316-8.332-10.034" transform="translate(17.123 213.89)" fill="#231f20"/><path d="M54.593,150.306v12.9H48.861V151.022c0-3.447-.852-5.016-3.583-5.016-2.6,0-4.3,1.7-4.3,5.732V163.2H35.244V151.022c0-3.447-1.029-5.016-3.583-5.016-2.6,0-4.3,1.7-4.3,5.732V163.2H21.629V140.991h5.732v2.148a7.354,7.354,0,0,1,5.734-2.867,6.921,6.921,0,0,1,6.224,3,8.36,8.36,0,0,1,6.675-3c5.107,0,8.6,3.316,8.6,10.034" transform="translate(32.914 213.456)" fill="#231f20"/><path d="M36.127,140.236a3.941,3.941,0,1,1,3.941,3.941,3.918,3.918,0,0,1-3.941-3.941m1.074,6.809h5.732v22.216H37.2Z" transform="translate(54.976 207.403)" fill="#231f20"/><path d="M61.743,150.306v12.9H56.009V151.022c0-3.447-1.344-5.016-4.3-5.016-2.6,0-5.018,1.7-5.018,5.732V163.2H40.959V140.991h5.732v2.148c1.523-1.79,3.359-2.867,6.718-2.867,5.107,0,8.334,3.316,8.334,10.034" transform="translate(62.329 213.456)" fill="#231f20"/><path d="M50.625,140.236a3.941,3.941,0,1,1,3.941,3.941,3.92,3.92,0,0,1-3.941-3.941m1.074,6.809h5.732v22.216H51.7Z" transform="translate(77.038 207.403)" fill="#231f20"/><path d="M74.954,160.363c0,4.524-3.583,7.883-9.764,7.883a17.074,17.074,0,0,1-10.3-3.225l1.881-5.374a12.963,12.963,0,0,0,7.883,3.135c2.643.045,4.569-.537,4.569-1.927,0-.983-.986-1.344-3.941-1.836-8.286-1.344-9.676-3.987-9.676-7.613,0-3.583,3.9-6.809,9.721-6.809a19.426,19.426,0,0,1,8.645,2.151l-1.614,5.195a14.444,14.444,0,0,0-7.031-1.881c-2.33-.045-3.987.4-3.987,1.344,0,1.344,2.328,1.566,4.7,1.969,7.525,1.21,8.912,4.166,8.912,6.988M80.7,150.329H77.829v-5.016H80.7V137.43h5.732v7.883h4.3v5.016h-4.3v9.318c0,3.4,1.48,3.538,4.3,2.865v5.018a10.673,10.673,0,0,1-4.211.716c-4.075,0-5.823-2.913-5.823-7.033Zm30.1-5.732v6.763a8.735,8.735,0,0,0-4.3,0,6.861,6.861,0,0,0-5.016,6.852v9.318H95.751V145.313h5.734v4.7c1.478-3.45,5.283-5.149,9.315-5.419" transform="translate(83.526 209.132)" fill="#231f20"/><path d="M101.565,152.1A11.824,11.824,0,1,1,89.74,140.272,11.812,11.812,0,0,1,101.565,152.1m-5.732,0a6.091,6.091,0,1,0-6.092,6.093,6.1,6.1,0,0,0,6.092-6.093m28.675,3.942c0,4.524-3.583,7.883-9.764,7.883a17.074,17.074,0,0,1-10.3-3.225l1.881-5.374a12.962,12.962,0,0,0,7.883,3.134c2.643.045,4.569-.537,4.569-1.927,0-.984-.986-1.342-3.941-1.836-8.286-1.344-9.676-3.987-9.676-7.613,0-3.583,3.9-6.809,9.719-6.809a19.417,19.417,0,0,1,8.644,2.151l-1.611,5.195a14.447,14.447,0,0,0-7.033-1.881c-2.328-.045-3.984.4-3.984,1.344,0,1.344,2.328,1.566,4.7,1.97,7.522,1.21,8.912,4.166,8.912,6.988" transform="translate(118.567 213.456)" fill="#231f20"/><path d="M128.834,155.495v12.9H123.1V156.211c0-3.45-1.344-5.018-4.3-5.018-2.6,0-5.016,1.7-5.016,5.734v11.466H108.05V146.177h5.734v2.151c1.523-1.793,3.359-2.867,6.718-2.867,5.107,0,8.332,3.314,8.332,10.034m21.508-6.942V136.862h5.732v31.532h-5.732v-2.375a8.716,8.716,0,0,1-6.809,3.092c-6.135,0-11.106-5.286-11.106-11.824s4.97-11.824,11.106-11.824a8.716,8.716,0,0,1,6.809,3.092m0,8.733a6.091,6.091,0,1,0-6.093,6.093,6.1,6.1,0,0,0,6.093-6.093" transform="translate(164.423 208.267)" fill="#231f20"/><path d="M128.945,153.456v-12.9h5.732V152.74c0,3.447,1.344,5.016,4.3,5.016,2.6,0,5.016-1.7,5.016-5.732V140.557h5.732v22.214h-5.732v-2.148c-1.523,1.79-3.359,2.867-6.718,2.867-5.107,0-8.332-3.316-8.332-10.034" transform="translate(196.22 213.89)" fill="#231f20"/><path d="M158.818,160.363c0,4.524-3.583,7.883-9.764,7.883a17.074,17.074,0,0,1-10.3-3.225l1.881-5.374a12.963,12.963,0,0,0,7.883,3.135c2.643.045,4.569-.537,4.569-1.927,0-.983-.986-1.344-3.941-1.836-8.286-1.344-9.676-3.987-9.676-7.613,0-3.583,3.9-6.809,9.721-6.809a19.425,19.425,0,0,1,8.644,2.151l-1.614,5.195a14.445,14.445,0,0,0-7.031-1.881c-2.33-.045-3.987.4-3.987,1.344,0,1.344,2.328,1.566,4.7,1.969,7.525,1.21,8.912,4.166,8.912,6.988m5.742-10.034h-2.867v-5.016h2.867V137.43h5.732v7.883h4.3v5.016h-4.3v9.318c0,3.4,1.48,3.538,4.3,2.865v5.018a10.673,10.673,0,0,1-4.211.716c-4.075,0-5.823-2.913-5.823-7.033Zm30.1-5.732v6.763a8.735,8.735,0,0,0-4.3,0,6.861,6.861,0,0,0-5.016,6.852v9.318h-5.734V145.313h5.734v4.7c1.478-3.45,5.283-5.149,9.315-5.419" transform="translate(211.145 209.132)" fill="#231f20"/><path d="M162.065,140.236a3.941,3.941,0,1,1,3.941,3.941,3.918,3.918,0,0,1-3.941-3.941m1.074,6.809h5.732v22.216h-5.732Z" transform="translate(246.62 207.403)" fill="#231f20"/><path d="M189.975,140.988V163.2h-5.729v-2.375a8.725,8.725,0,0,1-6.811,3.092c-6.135,0-11.106-5.286-11.106-11.824s4.97-11.824,11.106-11.824a8.725,8.725,0,0,1,6.811,3.092v-2.376ZM184.246,152.1a6.093,6.093,0,1,0-6.093,6.093,6.1,6.1,0,0,0,6.093-6.093" transform="translate(253.108 213.456)" fill="#231f20"/><rect width="5.732" height="31.532" transform="translate(448.47 345.129)" fill="#231f20"/><path d="M203.664,153.888H187.494a6.453,6.453,0,0,0,6.584,5.016,11.83,11.83,0,0,0,6.63-2.06l1.657,4.973a15.646,15.646,0,0,1-8.377,2.106c-8.642,0-12.45-5.376-12.45-11.824,0-6.539,3.717-11.824,11.466-11.824,6.942,0,10.748,4.388,10.748,11.824,0,.492-.043,1.208-.088,1.79m-6-4.3c0-1.836-1.569-4.3-5.016-4.3-2.867,0-5.018,2.464-5.018,4.3Zm29.033,6.451c0,4.524-3.583,7.883-9.764,7.883a17.073,17.073,0,0,1-10.3-3.225l1.881-5.374a12.962,12.962,0,0,0,7.883,3.135c2.643.045,4.567-.537,4.567-1.927,0-.986-.983-1.344-3.941-1.836-8.284-1.344-9.673-3.987-9.673-7.613,0-3.584,3.9-6.809,9.719-6.809a19.443,19.443,0,0,1,8.645,2.149l-1.611,5.2a14.427,14.427,0,0,0-7.033-1.881c-2.328-.045-3.987.4-3.987,1.344,0,1.341,2.33,1.566,4.7,1.969,7.525,1.21,8.914,4.166,8.914,6.988m38.711-15.05-14.333,33.68h-6.448l5.732-13.078-8.6-20.6h6.451l5.374,13.078,5.374-13.078Z" transform="translate(276.252 213.458)" fill="#231f20"/><path d="M253.7,153.888H237.528a6.453,6.453,0,0,0,6.584,5.016,11.844,11.844,0,0,0,6.63-2.06l1.657,4.973a15.641,15.641,0,0,1-8.375,2.106c-8.644,0-12.452-5.376-12.452-11.824,0-6.541,3.717-11.824,11.466-11.824,6.942,0,10.75,4.388,10.75,11.824,0,.492-.045,1.208-.091,1.79m-6-4.3c0-1.836-1.568-4.3-5.016-4.3-2.867,0-5.018,2.464-5.018,4.3Z" transform="translate(352.391 213.458)" fill="#231f20"/><path d="M256.856,140.273v6.763a8.735,8.735,0,0,0-4.3,0,6.86,6.86,0,0,0-5.018,6.852v9.318h-5.732V140.989h5.732v4.7c1.478-3.45,5.285-5.152,9.318-5.419m1.44.716h6.451l5.016,13.615,5.016-13.615h6.45l-9.318,22.216h-4.3Z" transform="translate(367.964 213.458)" fill="#231f20"/><path d="M258.01,140.236a3.941,3.941,0,1,1,3.941,3.941,3.92,3.92,0,0,1-3.941-3.941m1.074,6.809h5.732v22.216h-5.732Z" transform="translate(392.622 207.403)" fill="#231f20"/><path d="M279.823,156.173l2.373,5.107c-1.79,1.745-4.882,2.643-7.7,2.643-7.792,0-12.361-5.285-12.361-11.824s4.658-11.824,12.361-11.824a11.5,11.5,0,0,1,7.7,2.643l-2.373,5.149a7.354,7.354,0,0,0-5.152-2.06c-4.209,0-6.806,2.734-6.806,6.093s2.552,6.09,6.806,6.09a7.32,7.32,0,0,0,5.152-2.015" transform="translate(398.893 213.458)" fill="#231f20"/><path d="M271.229,140.236a3.941,3.941,0,1,1,3.941,3.941,3.92,3.92,0,0,1-3.941-3.941m1.074,6.809h5.732v22.216H272.3Z" transform="translate(412.738 207.403)" fill="#231f20"/><path d="M299,152.1a11.824,11.824,0,1,1-11.824-11.824A11.812,11.812,0,0,1,299,152.1m-5.732,0a6.091,6.091,0,1,0-6.093,6.093,6.1,6.1,0,0,0,6.093-6.093m28.675,3.942c0,4.524-3.583,7.883-9.764,7.883a17.073,17.073,0,0,1-10.3-3.225l1.881-5.374a12.962,12.962,0,0,0,7.883,3.134c2.643.045,4.569-.537,4.569-1.927,0-.984-.986-1.342-3.942-1.836-8.286-1.344-9.676-3.987-9.676-7.613,0-3.583,3.9-6.809,9.719-6.809a19.417,19.417,0,0,1,8.645,2.151l-1.612,5.195a14.446,14.446,0,0,0-7.033-1.881c-2.328-.045-3.984.4-3.984,1.344,0,1.344,2.328,1.566,4.7,1.97,7.522,1.21,8.912,4.166,8.912,6.988" transform="translate(419.009 213.456)" fill="#231f20"/><path d="M586.285,311.27c97.715,0,149.445-46.425,149.445-103.462,0-74.724-75.165-93.294-123.8-100.809-24.761-3.979-39.354-5.306-39.354-13.708s6.191-13.264,34.49-11.938c43.328,2.212,68.974,18.129,77.374,24.32L714.508,28.3C681.788,7.959,639.342,0,608.391,0,511.564,0,459.83,40.678,459.83,100.367c0,46.425,18.57,76.048,100.367,94.618,38.466,8.844,55.713,9.285,55.713,18.57,0,9.726-8.844,13.706-44.657,9.285,0,0-53.057-6.191-87.988-31.834l-30.508,77.818s54.827,42.446,133.528,42.446M424.46,125.789H311.272V304.2H424.46ZM133.528,311.27c97.715,0,149.445-46.425,149.445-103.462,0-74.724-75.165-93.294-123.8-100.809-24.761-3.979-39.352-5.306-39.352-13.708s6.188-13.264,34.487-11.938c43.328,2.212,68.974,18.129,77.374,24.32L261.751,28.3C229.031,7.959,186.585,0,155.636,0,58.807,0,7.076,40.678,7.076,100.367c0,46.425,18.568,76.048,100.365,94.618,38.469,8.844,55.713,9.285,55.713,18.57,0,9.726-8.844,13.706-44.657,9.285,0,0-53.057-6.191-87.988-31.834L0,268.824S54.828,311.27,133.528,311.27" fill="#ed1c24"/><path d="M180.344,2.088a56.53,56.53,0,1,1-56.53,56.53,56.53,56.53,0,0,1,56.53-56.53" transform="translate(188.412 3.177)" fill="#ed1c24" fill-rule="evenodd"/></g></svg>